<?xml version="1.0" standalone="no"?>
<!DOCTYPE svg PUBLIC "-//W3C//DTD SVG 20010904//EN"
 "http://www.w3.org/TR/2001/REC-SVG-20010904/DTD/svg10.dtd">
<svg version="1.0" xmlns="http://www.w3.org/2000/svg"
 width="2164pt" height="276pt" viewBox="96 430 2164 276"
 preserveAspectRatio="xMidYMid meet">

<g transform="translate(0.000000,1176.000000) scale(0.100000,-0.100000)"
fill="#ffffff" stroke="none">
<path d="M2332 7450 c-49 -11 -107 -54 -140 -102 -16 -24 -126 -218 -244 -433
-1080 -1955 -981 -1771 -986 -1838 -8 -109 40 -201 132 -250 l41 -22 2724 0
2725 0 86 155 c47 85 196 353 330 595 133 242 344 621 468 843 l224 402 909 0
909 0 -21 -42 c-12 -24 -177 -323 -367 -665 l-345 -623 -507 0 -508 0 -181
-329 c-99 -181 -181 -332 -181 -335 0 -11 1883 -7 1922 4 68 19 117 68 173
170 51 93 419 759 763 1380 96 173 231 419 301 545 l126 230 0 75 c-1 108 -42
177 -135 226 -34 18 -87 19 -1380 19 l-1345 0 -213 -385 c-293 -527 -556
-1003 -734 -1327 l-150 -273 -909 0 c-933 0 -933 0 -900 36 8 8 154 268 556
992 l168 302 511 0 511 0 175 316 c96 174 176 322 178 330 3 12 -323 14 -2325
13 -1280 -1 -2343 -5 -2361 -9z m3092 -682 c-39 -76 -707 -1274 -716 -1285
-14 -17 -768 -19 -768 -3 0 6 29 61 64 123 59 105 315 561 454 813 34 61 62
114 62 118 0 4 -39 5 -86 4 l-86 -3 -288 -517 c-158 -285 -293 -525 -300 -533
-11 -13 -58 -15 -316 -15 -206 0 -304 3 -304 10 0 11 529 974 556 1015 29 41
20 46 -73 43 l-86 -3 -295 -530 -295 -530 -433 -2 c-239 -2 -434 0 -434 3 0 7
686 1240 716 1287 l24 37 1310 0 1311 0 -17 -32z"/>
<path d="M13538 7322 c-26 -57 -48 -105 -48 -107 0 -3 72 -5 160 -5 88 0 160
-3 160 -6 0 -8 -112 -254 -260 -571 -71 -152 -128 -279 -126 -282 2 -3 66 -5
141 -3 l137 3 50 107 c28 59 118 251 199 427 l149 320 163 3 164 2 47 102 c25
55 45 103 43 105 -2 2 -213 4 -467 6 l-464 2 -48 -103z"/>
<path d="M18907 7415 c-5 -5 -28 -53 -51 -105 l-43 -95 164 -3 c89 -1 163 -6
163 -10 0 -5 -88 -197 -195 -427 -107 -230 -195 -420 -195 -422 0 -2 64 -2
142 -1 l143 3 196 425 196 425 161 3 162 2 39 85 c22 47 42 94 46 105 6 19 1
20 -456 22 -300 2 -466 -1 -472 -7z"/>
<path d="M11976 7368 c-13 -29 -124 -264 -246 -523 -122 -258 -222 -476 -223
-483 -2 -10 29 -13 137 -13 76 0 140 1 141 3 4 4 177 377 375 811 l118 257
-139 0 -139 0 -24 -52z"/>
<path d="M12457 7403 c-3 -10 -52 -119 -109 -243 -139 -298 -368 -804 -368
-810 0 -10 249 -5 259 5 9 9 229 484 276 595 28 67 32 67 49 3 9 -32 52 -179
95 -328 l79 -270 121 -3 122 -3 38 83 c102 223 298 652 370 811 l80 178 -132
-3 -131 -3 -80 -170 c-43 -93 -107 -234 -141 -313 -34 -79 -66 -143 -71 -143
-5 0 -14 19 -20 43 -6 24 -44 163 -83 310 -39 147 -71 270 -71 273 0 3 -62 5
-139 5 -123 0 -139 -2 -144 -17z"/>
<path d="M14600 7324 c-25 -53 -46 -100 -48 -105 -2 -5 175 -9 422 -9 l427 0
44 96 c25 53 45 100 45 105 0 5 -187 9 -422 9 l-423 -1 -45 -95z"/>
<path d="M15752 7401 c-69 -24 -136 -81 -181 -157 -36 -60 -289 -608 -317
-687 -19 -54 -18 -122 3 -154 34 -51 52 -53 457 -53 206 0 385 4 398 9 16 6
36 33 57 77 38 78 251 536 251 541 0 2 -113 3 -251 3 l-250 0 -40 -85 c-21
-47 -39 -90 -39 -95 0 -6 45 -10 110 -10 61 0 110 -4 110 -9 0 -4 -22 -54 -50
-110 l-50 -101 -197 2 -198 3 -3 24 c-3 22 134 346 216 511 48 97 38 94 389
100 l307 5 42 95 c24 52 43 98 43 103 1 4 -169 7 -376 7 -339 -1 -383 -3 -431
-19z"/>
<path d="M16756 7324 c-25 -53 -46 -100 -46 -105 0 -5 143 -10 327 -11 299 -3
328 -4 331 -20 5 -24 -76 -202 -103 -228 -20 -19 -37 -21 -209 -27 -156 -5
-186 -4 -186 8 0 8 18 54 40 102 27 62 35 90 26 93 -6 2 -69 3 -139 2 l-127
-3 -180 -385 c-99 -212 -180 -388 -180 -392 0 -5 62 -8 139 -8 l138 0 89 190
89 190 133 0 132 0 0 -189 0 -190 141 -3 c96 -2 143 1 146 8 2 6 0 98 -4 204
l-8 193 25 9 c69 26 133 64 160 95 57 65 200 377 200 437 0 21 -7 50 -15 66
-31 59 -35 60 -473 60 l-399 0 -47 -96z"/>
<path d="M17970 7093 c-146 -180 -340 -418 -432 -530 -93 -112 -168 -206 -168
-208 0 -3 65 -5 144 -5 l144 0 67 85 66 85 231 0 231 0 -7 -85 -7 -85 145 0
c116 0 146 3 146 14 0 7 16 239 35 515 19 275 35 510 35 521 0 19 -7 20 -182
20 l-183 -1 -265 -326z m345 65 c-2 -13 -11 -97 -20 -188 -8 -91 -18 -186 -21
-212 l-6 -48 -160 0 c-88 0 -158 4 -156 9 6 18 353 460 361 461 4 0 5 -10 2
-22z"/>
<path d="M19941 7358 c-55 -123 -325 -705 -387 -836 -92 -194 -100 -173 66
-170 l142 3 229 500 c126 275 235 515 244 533 l15 32 -141 0 -140 0 -28 -62z"/>
<path d="M20550 7411 c-53 -17 -108 -51 -145 -92 -42 -46 -114 -191 -274 -553
-111 -247 -125 -300 -97 -355 31 -58 49 -61 419 -61 397 0 399 0 492 94 59 59
65 70 225 426 169 376 185 427 158 480 -7 13 -29 35 -47 47 -34 23 -36 23
-370 22 -185 0 -347 -4 -361 -8z m470 -216 c10 -12 7 -27 -18 -83 -189 -416
-225 -489 -252 -514 l-30 -28 -178 0 c-180 0 -202 4 -202 38 0 8 34 91 77 185
163 368 175 390 218 408 11 4 99 8 196 8 146 1 179 -2 189 -14z"/>
<path d="M21558 7338 c-20 -46 -128 -281 -238 -523 -111 -242 -204 -446 -207
-452 -4 -10 25 -13 128 -13 l134 0 64 143 c36 78 102 225 148 327 74 166 103
217 103 178 0 -20 183 -642 191 -648 4 -3 59 -4 124 -2 l116 3 35 77 c112 243
444 982 444 987 0 3 -57 5 -126 5 l-125 0 -88 -182 c-49 -101 -115 -245 -147
-320 -32 -76 -62 -138 -65 -138 -3 0 -23 62 -43 138 -20 75 -62 217 -92 314
-30 98 -54 180 -54 183 0 3 -60 5 -133 5 l-132 0 -37 -82z"/>
<path d="M14512 7128 c-5 -7 -50 -101 -100 -208 -49 -107 -129 -277 -176 -378
-48 -100 -85 -186 -82 -190 2 -4 196 -5 430 -2 l427 5 44 98 c25 54 45 102 45
107 0 4 -124 8 -275 7 -151 -1 -277 2 -281 6 -4 4 13 53 38 109 l45 103 221 3
c160 2 222 6 229 15 11 14 70 146 75 165 2 10 -40 13 -207 12 -116 0 -214 2
-217 5 -3 4 7 35 23 70 16 36 29 69 29 75 0 16 -255 13 -268 -2z"/>
<path d="M6241 6402 c-41 -75 -141 -257 -223 -404 -81 -147 -148 -270 -148
-273 0 -3 46 -4 101 -3 l102 3 184 335 c101 184 202 368 224 408 l40 72 -103
0 -103 0 -74 -138z"/>
<path d="M8236 6322 c-66 -119 -166 -299 -223 -400 -57 -101 -103 -187 -103
-192 0 -12 180 -13 196 -2 12 8 444 790 444 803 0 5 -44 9 -97 9 l-98 0 -119
-218z"/>
<path d="M11152 5743 c-19 -28 -92 -168 -92 -178 0 -2 168 -6 373 -7 371 -3
372 -3 375 -24 4 -31 -101 -249 -130 -268 -19 -13 -61 -15 -238 -16 -118 0
-218 -1 -222 0 -4 0 18 52 47 115 l54 116 -152 -3 -152 -3 -89 -175 c-48 -96
-136 -267 -195 -380 -58 -113 -107 -208 -109 -212 -2 -5 71 -8 163 -8 l166 0
82 168 83 167 319 5 c307 5 322 6 370 28 103 48 143 105 269 388 79 177 89
221 60 262 -36 52 -39 52 -518 52 l-445 0 -19 -27z"/>
<path d="M12297 5588 c-47 -101 -147 -313 -222 -473 -76 -159 -150 -318 -166
-353 l-28 -62 426 2 425 3 44 99 c24 54 44 103 44 107 0 5 -124 9 -276 9 -217
0 -275 3 -271 13 18 40 237 509 306 651 44 93 81 173 81 178 0 4 -62 8 -138 8
l-139 0 -86 -182z"/>
<path d="M13543 5652 c-228 -274 -768 -934 -771 -943 -2 -5 58 -9 141 -9 l144
0 67 85 67 85 231 0 231 0 -7 -85 -6 -85 145 0 145 0 0 24 c0 27 45 651 63
884 7 84 11 155 8 158 -2 2 -85 4 -183 4 l-178 0 -97 -118z m147 -359 c-12
-125 -23 -229 -25 -231 -1 -1 -74 -1 -163 0 l-160 3 181 232 c99 128 183 231
185 229 2 -3 -6 -107 -18 -233z"/>
<path d="M14260 5669 c-28 -56 -50 -103 -50 -105 0 -2 74 -4 165 -4 91 0 165
-4 165 -9 0 -8 -57 -131 -286 -617 -57 -122 -104 -225 -104 -228 0 -3 63 -6
140 -6 l141 0 44 93 c25 50 114 243 198 427 l153 335 160 3 160 2 47 95 c26
53 47 100 47 105 0 6 -166 10 -465 10 l-465 0 -50 -101z"/>
<path d="M15330 5670 c-27 -55 -50 -102 -50 -105 0 -3 188 -5 418 -5 l418 0
45 97 c24 53 46 100 47 105 2 4 -183 8 -412 8 l-416 0 -50 -100z"/>
<path d="M16463 5756 c-106 -34 -166 -97 -243 -260 -129 -272 -263 -563 -276
-600 -8 -21 -14 -59 -14 -83 0 -38 5 -50 34 -79 l34 -34 359 0 360 0 61 30
c111 56 127 82 356 592 58 130 111 259 117 286 13 63 -5 113 -53 142 -31 19
-49 20 -363 19 -242 0 -341 -4 -372 -13z m461 -202 c26 -10 19 -39 -50 -192
-139 -306 -191 -410 -216 -426 -21 -14 -54 -16 -214 -14 -185 3 -189 3 -192
24 -3 19 126 316 222 513 47 97 56 101 263 101 94 0 178 -3 187 -6z"/>
<path d="M17473 5673 c-26 -54 -49 -101 -51 -105 -2 -5 145 -8 327 -8 279 0
332 -2 337 -14 8 -21 -75 -206 -105 -233 -23 -22 -31 -23 -212 -23 -104 0
-189 2 -189 5 0 2 18 44 40 91 22 48 40 89 40 91 0 2 -63 2 -140 1 l-141 -3
-170 -370 c-94 -203 -173 -378 -176 -387 -5 -17 6 -18 131 -18 l137 0 59 128
c33 70 74 156 92 192 l33 65 125 -2 c69 -2 128 -3 133 -3 4 0 7 -85 7 -190 l0
-190 146 0 146 0 -5 23 c-3 12 -7 102 -9 200 l-3 178 56 23 c116 47 142 81
245 311 42 96 68 167 71 200 5 49 3 55 -30 91 l-35 39 -406 3 -406 3 -47 -98z"/>
<path d="M18636 5718 c-12 -29 -120 -267 -239 -529 -120 -262 -217 -479 -217
-483 0 -3 60 -6 133 -6 l132 0 122 283 c67 155 127 294 132 310 6 15 14 27 17
27 4 0 4 -139 0 -310 l-7 -310 123 1 123 0 95 111 c52 61 171 202 263 312 92
111 172 203 177 204 6 2 -15 -50 -46 -115 -76 -159 -234 -504 -234 -509 0 -2
60 -4 133 -4 l133 0 209 463 c115 254 224 495 242 535 l32 72 -178 0 -179 0
-224 -262 c-123 -145 -261 -308 -307 -363 -46 -55 -86 -102 -89 -105 -2 -3 -1
160 3 363 l7 367 -166 0 -166 0 -24 -52z"/>
<path d="M15361 5480 l-125 -5 -84 -180 c-46 -99 -126 -270 -178 -379 -52
-109 -94 -203 -94 -207 0 -5 62 -9 139 -9 l138 0 63 138 c35 75 78 167 97 205
l33 67 215 0 215 0 45 90 c25 49 45 94 45 100 0 6 -73 10 -208 10 -115 0 -211
3 -214 6 -4 3 9 39 28 80 37 82 40 95 22 92 -7 -1 -69 -5 -137 -8z"/>
</g>
</svg>
