<svg version="1.0" xmlns="http://www.w3.org/2000/svg" width="713" height="350" viewBox="0 0 713 350" preserveAspectRatio="xMidYMid meet">
<g transform="translate(0.000000,350.000000) scale(0.100000,-0.100000)" fill="#111114" stroke="none">
<path d="M663 2193 c-14 -16 -62 -95 -107 -178 -89 -163 -129 -236 -214 -389 -60 -110 -67 -149 -31 -178 20 -17 70 -18 836 -16 l816 3 161 290 161 290 274 3 273 2 -35 -62 c-19 -35 -43 -79 -54 -98 -11 -19 -43 -79 -73 -132 l-54 -98 -151 0 -151 0 -52 -95 c-29 -52 -52 -97 -52 -100 0 -3 130 -5 288 -5 263 0 290 2 304 18 13 14 162 276 246 432 13 25 48 88 78 141 56 100 65 140 40 175 -14 18 -32 19 -424 22 l-410 3 -63 -113 c-34 -62 -95 -171 -134 -243 -40 -71 -85 -154 -101 -182 l-29 -53 -267 0 c-169 0 -268 4 -268 10 0 9 75 145 172 312 l39 67 151 3 152 3 53 94 c29 51 53 95 53 97 0 2 -316 4 -701 4 l-701 0 -25 -27z m945 -195 c-8 -13 -55 -95 -103 -183 -48 -88 -92 -166 -97 -172 -13 -17 -228 -18 -228 -2 0 5 11 27 25 47 14 20 25 40 25 43 0 4 25 50 55 104 30 53 55 101 55 107 0 5 -10 8 -22 6 -16 -2 -43 -41 -108 -158 l-87 -155 -92 -3 c-50 -1 -91 0 -91 3 0 6 62 123 121 228 45 79 46 87 19 87 -22 0 -30 -11 -137 -202 l-65 -118 -130 0 -129 0 37 68 c20 37 46 81 56 99 24 40 83 148 105 191 l17 32 394 0 394 0 -14 -22z"/>
<path d="M3502 2056 c-40 -85 -72 -157 -72 -161 0 -3 19 -5 41 -3 l42 3 68 149 c38 82 69 153 69 158 0 4 -17 8 -38 8 l-38 0 -72 -154z"/>
<path d="M3646 2063 c-37 -81 -70 -154 -73 -160 -4 -9 7 -13 34 -13 l39 0 44 96 c28 61 46 91 51 82 4 -7 17 -50 29 -95 l22 -83 38 0 38 0 57 128 c32 70 64 142 72 160 l13 32 -37 0 c-38 0 -38 -1 -75 -81 -21 -44 -38 -85 -38 -90 0 -5 -4 -9 -10 -9 -5 0 -14 19 -20 43 -37 140 -32 132 -76 135 l-40 3 -68 -148z"/>
<path d="M4031 2179 c-6 -18 -11 -34 -11 -35 0 -2 20 -4 45 -4 52 0 53 11 -17 -139 -26 -57 -48 -106 -48 -108 0 -2 19 -3 42 -1 l43 3 55 122 55 123 47 0 c37 0 50 5 62 22 32 45 25 48 -123 48 l-139 0 -11 -31z"/>
<path d="M4352 2185 c-7 -14 -12 -28 -12 -30 0 -3 56 -5 125 -5 125 0 125 0 135 26 6 14 10 27 10 30 0 2 -56 4 -123 4 -123 0 -124 0 -135 -25z"/>
<path d="M4680 2197 c-27 -13 -96 -136 -126 -224 -27 -78 -19 -83 126 -83 82 0 121 4 128 13 5 6 25 48 44 92 l35 80 -71 3 c-58 2 -73 0 -83 -14 -21 -29 -15 -44 17 -44 35 0 35 -1 15 -40 -14 -28 -20 -30 -70 -30 -29 0 -56 4 -59 9 -3 5 12 47 34 95 l40 86 95 0 94 0 16 30 c8 16 15 31 15 35 0 11 -225 5 -250 -8z"/>
<path d="M4992 2185 c-7 -14 -12 -28 -12 -30 0 -3 43 -5 95 -5 102 0 109 -4 84 -53 -17 -32 -28 -37 -83 -37 l-48 0 6 35 c7 35 7 35 -29 35 l-36 0 -55 -115 c-30 -63 -54 -117 -54 -120 0 -3 18 -5 40 -5 39 0 41 2 66 55 25 53 28 55 65 55 l39 0 0 -55 0 -55 46 0 47 0 -5 58 c-6 56 -5 59 23 74 32 19 60 60 79 118 21 64 10 70 -135 70 -121 0 -122 0 -133 -25z"/>
<path d="M5395 2163 c-86 -103 -215 -264 -215 -268 0 -3 18 -5 39 -5 30 0 44 6 59 25 18 22 27 25 86 25 64 0 66 -1 66 -25 0 -23 4 -25 44 -25 l43 0 7 108 c3 59 9 131 12 160 l6 52 -54 0 c-52 0 -55 -2 -93 -47z m50 -120 l-6 -43 -45 0 c-51 0 -54 7 -18 41 14 13 35 39 47 59 21 34 22 34 25 11 2 -13 1 -44 -3 -68z"/>
<path d="M5620 2184 c-15 -39 -13 -43 34 -46 l44 -3 -48 -103 c-70 -147 -69 -142 -22 -142 l39 0 58 125 58 124 51 3 c46 3 51 6 63 36 l13 32 -140 0 -140 0 -10 -26z"/>
<path d="M5903 2113 c-25 -54 -58 -126 -74 -160 l-28 -63 42 0 42 0 59 128 c32 70 65 142 73 160 l13 32 -40 0 -41 0 -46 -97z"/>
<path d="M6102 2197 c-24 -11 -66 -86 -116 -205 -40 -94 -33 -102 99 -102 61 0 115 5 131 12 21 10 40 39 79 123 67 143 69 149 50 169 -13 13 -37 16 -118 15 -56 0 -112 -5 -125 -12z m153 -79 c-4 -13 -13 -32 -20 -43 -6 -11 -17 -37 -24 -57 -7 -21 -22 -45 -34 -53 -25 -17 -103 -20 -113 -4 -3 6 11 49 31 95 l38 84 64 0 c62 0 64 -1 58 -22z"/>
<path d="M6366 2065 c-37 -81 -70 -153 -73 -161 -4 -11 4 -14 34 -14 l39 0 39 88 c21 48 42 91 46 95 4 5 20 -33 36 -85 l29 -93 37 -3 c35 -3 38 -1 53 35 16 40 20 49 84 188 22 48 40 89 40 91 0 2 -17 4 -38 4 l-39 0 -38 -87 c-21 -49 -41 -92 -45 -96 -4 -4 -18 34 -32 85 l-25 93 -40 3 -40 3 -67 -146z"/>
<path d="M4275 2018 c-30 -62 -55 -116 -55 -120 0 -5 56 -8 125 -8 125 0 125 0 135 26 6 14 10 27 10 30 0 2 -36 4 -81 4 -73 0 -80 2 -74 18 4 9 10 25 12 35 4 14 17 17 73 17 62 0 68 2 78 25 7 14 12 28 12 30 0 3 -27 5 -60 5 -59 0 -60 0 -54 25 6 23 4 25 -30 25 l-37 0 -54 -112z"/>
<path d="M1832 1858 c-27 -51 -57 -108 -66 -125 l-17 -33 28 0 c25 0 34 12 93 116 36 64 67 120 68 125 2 5 -10 9 -26 9 -28 0 -34 -7 -80 -92z"/>
<path d="M2462 1898 c-70 -127 -102 -187 -102 -193 0 -3 12 -5 28 -3 23 3 36 19 89 113 34 61 62 116 62 123 1 6 -10 12 -23 12 -19 0 -31 -12 -54 -52z"/>
<path d="M3316 1698 c-28 -40 -21 -43 89 -42 58 1 108 -2 111 -7 6 -10 -24 -71 -40 -81 -16 -11 -136 -10 -136 1 0 6 4 12 9 15 5 3 11 15 14 26 5 18 0 20 -39 20 l-44 0 -55 -110 c-30 -60 -55 -112 -55 -115 0 -4 21 -5 48 -3 45 3 48 5 70 51 l22 47 101 0 c96 0 102 1 128 28 15 15 40 58 56 96 28 66 28 69 10 82 -14 10 -54 14 -146 14 -121 0 -129 -1 -143 -22z"/>
<path d="M3661 1658 c-16 -35 -49 -107 -74 -160 l-46 -98 124 0 124 0 16 30 16 30 -81 0 c-50 0 -80 4 -80 11 0 6 25 63 55 126 30 64 55 118 55 119 0 2 -18 4 -40 4 -39 0 -40 -1 -69 -62z"/>
<path d="M3940 1568 c-69 -84 -126 -156 -128 -160 -2 -4 14 -8 35 -8 29 0 46 7 63 25 21 22 32 25 92 25 66 0 68 -1 68 -25 0 -22 4 -25 39 -25 l39 0 6 108 c4 59 9 131 13 160 l5 52 -54 0 -53 0 -125 -152z m136 -35 c-6 -20 -12 -23 -52 -23 l-45 0 22 33 c12 17 34 45 48 60 l26 29 3 -38 c2 -20 1 -48 -2 -61z"/>
<path d="M4251 1694 c-15 -33 -11 -36 36 -40 47 -3 47 -3 -17 -136 -27 -57 -50 -107 -50 -111 0 -5 18 -7 41 -5 l41 3 54 120 c30 65 60 123 67 127 7 4 29 8 49 8 34 0 68 26 68 52 0 5 -62 8 -138 8 l-139 0 -12 -26z"/>
<path d="M4565 1690 l-16 -30 125 0 c114 0 126 2 136 19 20 39 14 41 -110 41 l-119 0 -16 -30z"/>
<path d="M4895 1711 c-32 -13 -48 -38 -105 -163 -67 -150 -68 -148 84 -148 132 0 143 5 185 88 31 62 81 181 81 193 0 4 -7 15 -16 23 -12 13 -37 16 -112 15 -53 0 -106 -4 -117 -8z m145 -69 c0 -22 -68 -164 -83 -174 -17 -11 -105 -10 -112 1 -7 13 62 163 82 179 9 6 38 12 65 12 39 0 48 -3 48 -18z"/>
<path d="M5205 1690 l-16 -30 94 0 c52 0 96 -3 100 -6 8 -8 -13 -56 -32 -71 -13 -12 -111 -19 -111 -9 0 3 4 16 10 30 9 25 8 26 -31 26 l-40 0 -54 -112 -53 -113 30 -3 c45 -5 53 2 79 58 23 50 24 51 63 48 l41 -3 3 -52 3 -53 40 0 39 0 0 58 c0 53 2 60 25 70 17 8 36 34 55 74 52 110 45 118 -112 118 l-117 0 -16 -30z"/>
<path d="M5529 1653 c-17 -37 -48 -107 -70 -154 -21 -47 -39 -89 -39 -92 0 -4 17 -7 39 -7 38 0 39 1 60 58 12 31 31 73 42 92 l20 35 -6 -92 -6 -93 39 0 c36 0 43 5 112 89 41 49 76 88 78 87 1 -2 -14 -37 -33 -79 -19 -42 -35 -80 -35 -86 0 -6 16 -11 35 -11 34 0 37 2 72 78 35 75 103 233 103 239 0 2 -22 3 -49 3 -44 0 -52 -4 -82 -38 -57 -63 -124 -144 -132 -158 -21 -36 -29 -10 -25 89 l3 102 -48 3 -48 3 -30 -68z"/>
<path d="M4526 1603 c-8 -16 -32 -67 -54 -115 l-41 -88 43 0 43 0 26 60 26 60 65 0 c54 0 67 3 76 19 18 35 12 41 -43 41 -61 0 -70 5 -56 31 9 17 6 19 -30 19 -34 0 -43 -4 -55 -27z"/>
</g>
</svg>
